<svg width="74" height="69" viewBox="0 0 74 69" fill="none" xmlns="http://www.w3.org/2000/svg">
<path opacity="0.2" d="M51.1488 61.2548C49.0274 60.7508 46.8274 60.2174 45.0448 58.5548C43.2661 56.8934 42.0208 53.7494 42.7448 50.9881C43.8061 46.9321 47.8447 46.5148 51.0434 46.3721C55.4101 46.1588 59.7048 45.0934 63.6554 43.4388C67.7461 41.6854 71.6754 39.1308 72.9261 34.5574C74.1661 30.0628 71.5328 22.3374 67.1274 20.6601C64.3741 19.6881 61.9888 21.5268 59.3594 22.3468C56.7341 23.1374 52.7768 21.9694 52.1914 18.2588C51.7221 15.2388 53.9021 12.8681 53.8034 9.8801C53.6848 6.0881 50.0354 3.40144 47.0168 3.48945C44.0034 3.55611 41.1181 5.23878 38.0901 5.15745C34.3074 5.06678 31.0541 2.27078 27.6448 0.797455C24.2314 -0.727882 19.6968 -0.178551 17.332 4.09745C15.5029 7.37878 15.4346 11.8228 13.0497 14.3254C10.271 17.2068 6.83409 15.4281 3.95289 18.0188C0.150225 21.5188 0.169022 28.4401 3.11689 30.4081C6.08569 32.4254 10.5278 31.6708 14.6544 32.1121C18.7748 32.5121 23.3594 35.2254 23.9674 40.7708C24.2834 43.6241 23.4514 46.5534 23.3927 49.4454C23.2661 55.7214 26.8541 61.2894 31.0927 64.2961C31.0927 64.2974 31.0927 64.2961 31.0927 64.2974C34.7941 66.8854 40.3048 69.0268 44.5034 68.6174C46.3688 68.3934 53.1288 61.6868 51.1488 61.2548Z" fill="#D7D5D5"/>
</svg>
